<?xml version="1.0" encoding="utf-8" standalone="no"?>
<!DOCTYPE svg PUBLIC "-//W3C//DTD SVG 1.1//EN"
  "http://www.w3.org/Graphics/SVG/1.1/DTD/svg11.dtd">
<svg xmlns:xlink="http://www.w3.org/1999/xlink" width="460.8pt" height="345.6pt" viewBox="0 0 460.8 345.6" xmlns="http://www.w3.org/2000/svg" version="1.1">
 <metadata>
  <rdf:RDF xmlns:dc="http://purl.org/dc/elements/1.1/" xmlns:cc="http://creativecommons.org/ns#" xmlns:rdf="http://www.w3.org/1999/02/22-rdf-syntax-ns#">
   <cc:Work>
    <dc:type rdf:resource="http://purl.org/dc/dcmitype/StillImage"/>
    <dc:date>2025-01-30T15:40:15.702137</dc:date>
    <dc:format>image/svg+xml</dc:format>
    <dc:creator>
     <cc:Agent>
      <dc:title>Matplotlib v3.10.0, https://matplotlib.org/</dc:title>
     </cc:Agent>
    </dc:creator>
   </cc:Work>
  </rdf:RDF>
 </metadata>
 <defs>
  <style type="text/css">*{stroke-linejoin: round; stroke-linecap: butt}</style>
 </defs>
 <g id="figure_1">
  <g id="patch_1">
   <path d="M 0 345.6 
L 460.8 345.6 
L 460.8 0 
L 0 0 
z
" style="fill: #ffffff"/>
  </g>
  <g id="axes_1">
   <g id="patch_2">
    <path d="M 30.58 317.72 
L 449.652906 317.72 
L 449.652906 33.36 
L 30.58 33.36 
z
" style="fill: #ffffff"/>
   </g>
   <g id="PathCollection_1">
    <defs>
     <path id="m39e43184ec" d="M 0 -6.123724 
L -6.123724 6.123724 
L 6.123724 6.123724 
z
" style="stroke: #1f77b4; stroke-opacity: 0.7"/>
    </defs>
    <g clip-path="url(#pd372f8f485)">
     <use xlink:href="#m39e43184ec" x="266.601314" y="284.000425" style="fill: #1f77b4; fill-opacity: 0.7; stroke: #1f77b4; stroke-opacity: 0.7"/>
     <use xlink:href="#m39e43184ec" x="310.39843" y="271.973261" style="fill: #1f77b4; fill-opacity: 0.7; stroke: #1f77b4; stroke-opacity: 0.7"/>
     <use xlink:href="#m39e43184ec" x="231.848667" y="281.107624" style="fill: #1f77b4; fill-opacity: 0.7; stroke: #1f77b4; stroke-opacity: 0.7"/>
     <use xlink:href="#m39e43184ec" x="327.626991" y="281.312479" style="fill: #1f77b4; fill-opacity: 0.7; stroke: #1f77b4; stroke-opacity: 0.7"/>
     <use xlink:href="#m39e43184ec" x="298.990592" y="295.839705" style="fill: #1f77b4; fill-opacity: 0.7; stroke: #1f77b4; stroke-opacity: 0.7"/>
     <use xlink:href="#m39e43184ec" x="362.632874" y="287.88303" style="fill: #1f77b4; fill-opacity: 0.7; stroke: #1f77b4; stroke-opacity: 0.7"/>
     <use xlink:href="#m39e43184ec" x="423.214568" y="275.27455" style="fill: #1f77b4; fill-opacity: 0.7; stroke: #1f77b4; stroke-opacity: 0.7"/>
     <use xlink:href="#m39e43184ec" x="364.907889" y="279.815635" style="fill: #1f77b4; fill-opacity: 0.7; stroke: #1f77b4; stroke-opacity: 0.7"/>
     <use xlink:href="#m39e43184ec" x="231.628441" y="296.025616" style="fill: #1f77b4; fill-opacity: 0.7; stroke: #1f77b4; stroke-opacity: 0.7"/>
     <use xlink:href="#m39e43184ec" x="229.493757" y="267.605255" style="fill: #1f77b4; fill-opacity: 0.7; stroke: #1f77b4; stroke-opacity: 0.7"/>
    </g>
   </g>
   <g id="PathCollection_2">
    <defs>
     <path id="m234321dfb0" d="M 0 6.123724 
C 1.624031 6.123724 3.181764 5.47849 4.330127 4.330127 
C 5.47849 3.181764 6.123724 1.624031 6.123724 0 
C 6.123724 -1.624031 5.47849 -3.181764 4.330127 -4.330127 
C 3.181764 -5.47849 1.624031 -6.123724 0 -6.123724 
C -1.624031 -6.123724 -3.181764 -5.47849 -4.330127 -4.330127 
C -5.47849 -3.181764 -6.123724 -1.624031 -6.123724 0 
C -6.123724 1.624031 -5.47849 3.181764 -4.330127 4.330127 
C -3.181764 5.47849 -1.624031 6.123724 0 6.123724 
z
" style="stroke: #ff7f0e; stroke-opacity: 0.7"/>
    </defs>
    <g clip-path="url(#pd372f8f485)">
     <use xlink:href="#m234321dfb0" x="390.622881" y="57.913769" style="fill: #ff7f0e; fill-opacity: 0.7; stroke: #ff7f0e; stroke-opacity: 0.7"/>
     <use xlink:href="#m234321dfb0" x="171.722124" y="74.775037" style="fill: #ff7f0e; fill-opacity: 0.7; stroke: #ff7f0e; stroke-opacity: 0.7"/>
     <use xlink:href="#m234321dfb0" x="370.169507" y="118.36755" style="fill: #ff7f0e; fill-opacity: 0.7; stroke: #ff7f0e; stroke-opacity: 0.7"/>
     <use xlink:href="#m234321dfb0" x="71.649223" y="99.512288" style="fill: #ff7f0e; fill-opacity: 0.7; stroke: #ff7f0e; stroke-opacity: 0.7"/>
     <use xlink:href="#m234321dfb0" x="239.261393" y="93.644799" style="fill: #ff7f0e; fill-opacity: 0.7; stroke: #ff7f0e; stroke-opacity: 0.7"/>
     <use xlink:href="#m234321dfb0" x="309.179877" y="55.738613" style="fill: #ff7f0e; fill-opacity: 0.7; stroke: #ff7f0e; stroke-opacity: 0.7"/>
     <use xlink:href="#m234321dfb0" x="412.112025" y="91.866408" style="fill: #ff7f0e; fill-opacity: 0.7; stroke: #ff7f0e; stroke-opacity: 0.7"/>
     <use xlink:href="#m234321dfb0" x="317.095132" y="121.848778" style="fill: #ff7f0e; fill-opacity: 0.7; stroke: #ff7f0e; stroke-opacity: 0.7"/>
     <use xlink:href="#m234321dfb0" x="410.078175" y="109.592983" style="fill: #ff7f0e; fill-opacity: 0.7; stroke: #ff7f0e; stroke-opacity: 0.7"/>
     <use xlink:href="#m234321dfb0" x="243.873335" y="100.081437" style="fill: #ff7f0e; fill-opacity: 0.7; stroke: #ff7f0e; stroke-opacity: 0.7"/>
     <use xlink:href="#m234321dfb0" x="99.199886" y="95.542575" style="fill: #ff7f0e; fill-opacity: 0.7; stroke: #ff7f0e; stroke-opacity: 0.7"/>
     <use xlink:href="#m234321dfb0" x="223.221331" y="52.244385" style="fill: #ff7f0e; fill-opacity: 0.7; stroke: #ff7f0e; stroke-opacity: 0.7"/>
     <use xlink:href="#m234321dfb0" x="213.707012" y="61.304555" style="fill: #ff7f0e; fill-opacity: 0.7; stroke: #ff7f0e; stroke-opacity: 0.7"/>
     <use xlink:href="#m234321dfb0" x="253.455314" y="77.666227" style="fill: #ff7f0e; fill-opacity: 0.7; stroke: #ff7f0e; stroke-opacity: 0.7"/>
     <use xlink:href="#m234321dfb0" x="120.772005" y="56.350205" style="fill: #ff7f0e; fill-opacity: 0.7; stroke: #ff7f0e; stroke-opacity: 0.7"/>
     <use xlink:href="#m234321dfb0" x="154.653436" y="88.247351" style="fill: #ff7f0e; fill-opacity: 0.7; stroke: #ff7f0e; stroke-opacity: 0.7"/>
     <use xlink:href="#m234321dfb0" x="49.628768" y="85.180722" style="fill: #ff7f0e; fill-opacity: 0.7; stroke: #ff7f0e; stroke-opacity: 0.7"/>
     <use xlink:href="#m234321dfb0" x="195.976414" y="110.041524" style="fill: #ff7f0e; fill-opacity: 0.7; stroke: #ff7f0e; stroke-opacity: 0.7"/>
     <use xlink:href="#m234321dfb0" x="387.389118" y="125.982097" style="fill: #ff7f0e; fill-opacity: 0.7; stroke: #ff7f0e; stroke-opacity: 0.7"/>
     <use xlink:href="#m234321dfb0" x="301.722236" y="46.285455" style="fill: #ff7f0e; fill-opacity: 0.7; stroke: #ff7f0e; stroke-opacity: 0.7"/>
     <use xlink:href="#m234321dfb0" x="383.435637" y="50.72032" style="fill: #ff7f0e; fill-opacity: 0.7; stroke: #ff7f0e; stroke-opacity: 0.7"/>
     <use xlink:href="#m234321dfb0" x="321.242399" y="250.359749" style="fill: #ff7f0e; fill-opacity: 0.7; stroke: #ff7f0e; stroke-opacity: 0.7"/>
     <use xlink:href="#m234321dfb0" x="315.302365" y="89.465147" style="fill: #ff7f0e; fill-opacity: 0.7; stroke: #ff7f0e; stroke-opacity: 0.7"/>
     <use xlink:href="#m234321dfb0" x="82.900882" y="71.403972" style="fill: #ff7f0e; fill-opacity: 0.7; stroke: #ff7f0e; stroke-opacity: 0.7"/>
     <use xlink:href="#m234321dfb0" x="105.124031" y="116.919872" style="fill: #ff7f0e; fill-opacity: 0.7; stroke: #ff7f0e; stroke-opacity: 0.7"/>
     <use xlink:href="#m234321dfb0" x="166.403191" y="115.105649" style="fill: #ff7f0e; fill-opacity: 0.7; stroke: #ff7f0e; stroke-opacity: 0.7"/>
    </g>
   </g>
   <g id="PathCollection_3">
    <defs>
     <path id="m46553fd26d" d="M 0 -5.700877 
L -1.279927 -1.761668 
L -5.421856 -1.761668 
L -2.070965 0.672897 
L -3.350891 4.612106 
L -0 2.177541 
L 3.350891 4.612106 
L 2.070965 0.672897 
L 5.421856 -1.761668 
L 1.279927 -1.761668 
z
" style="stroke: #2ca02c; stroke-opacity: 0.7"/>
    </defs>
    <g clip-path="url(#pd372f8f485)">
     <use xlink:href="#m46553fd26d" x="335.246148" y="304.794545" style="fill: #2ca02c; fill-opacity: 0.7; stroke: #2ca02c; stroke-opacity: 0.7"/>
    </g>
   </g>
   <g id="PathCollection_4">
    <defs>
     <path id="m0935fc800a" d="M 0 2.850439 
C 0.755945 2.850439 1.481031 2.550098 2.015564 2.015564 
C 2.550098 1.481031 2.850439 0.755945 2.850439 0 
C 2.850439 -0.755945 2.550098 -1.481031 2.015564 -2.015564 
C 1.481031 -2.550098 0.755945 -2.850439 0 -2.850439 
C -0.755945 -2.850439 -1.481031 -2.550098 -2.015564 -2.015564 
C -2.550098 -1.481031 -2.850439 -0.755945 -2.850439 0 
C -2.850439 0.755945 -2.550098 1.481031 -2.015564 2.015564 
C -1.481031 2.550098 -0.755945 2.850439 0 2.850439 
z
" style="stroke: #d62728; stroke-opacity: 0.7"/>
    </defs>
    <g clip-path="url(#pd372f8f485)">
     <use xlink:href="#m0935fc800a" x="430.604137" y="66.478677" style="fill: #d62728; fill-opacity: 0.7; stroke: #d62728; stroke-opacity: 0.7"/>
     <use xlink:href="#m0935fc800a" x="417.276833" y="301.266263" style="fill: #d62728; fill-opacity: 0.7; stroke: #d62728; stroke-opacity: 0.7"/>
     <use xlink:href="#m0935fc800a" x="401.081249" y="291.911797" style="fill: #d62728; fill-opacity: 0.7; stroke: #d62728; stroke-opacity: 0.7"/>
    </g>
   </g>
   <g id="matplotlib.axis_1">
    <g id="xtick_1">
     <g id="line2d_1">
      <path d="M 78.467781 317.72 
L 78.467781 33.36 
" clip-path="url(#pd372f8f485)" style="fill: none; stroke: #b0b0b0; stroke-opacity: 0.6; stroke-width: 0.8; stroke-linecap: square"/>
     </g>
     <g id="line2d_2">
      <defs>
       <path id="me477cf536c" d="M 0 0 
L 0 3.5 
" style="stroke: #000000; stroke-width: 0.8"/>
      </defs>
      <g>
       <use xlink:href="#me477cf536c" x="78.467781" y="317.72" style="stroke: #000000; stroke-width: 0.8"/>
      </g>
     </g>
     <g id="text_1">
      <!-- 3.5 -->
      <g transform="translate(70.516218 332.318437) scale(0.1 -0.1)">
       <defs>
        <path id="DejaVuSans-33" d="M 2597 2516 
Q 3050 2419 3304 2112 
Q 3559 1806 3559 1356 
Q 3559 666 3084 287 
Q 2609 -91 1734 -91 
Q 1441 -91 1130 -33 
Q 819 25 488 141 
L 488 750 
Q 750 597 1062 519 
Q 1375 441 1716 441 
Q 2309 441 2620 675 
Q 2931 909 2931 1356 
Q 2931 1769 2642 2001 
Q 2353 2234 1838 2234 
L 1294 2234 
L 1294 2753 
L 1863 2753 
Q 2328 2753 2575 2939 
Q 2822 3125 2822 3475 
Q 2822 3834 2567 4026 
Q 2313 4219 1838 4219 
Q 1578 4219 1281 4162 
Q 984 4106 628 3988 
L 628 4550 
Q 988 4650 1302 4700 
Q 1616 4750 1894 4750 
Q 2613 4750 3031 4423 
Q 3450 4097 3450 3541 
Q 3450 3153 3228 2886 
Q 3006 2619 2597 2516 
z
" transform="scale(0.015625)"/>
        <path id="DejaVuSans-2e" d="M 684 794 
L 1344 794 
L 1344 0 
L 684 0 
L 684 794 
z
" transform="scale(0.015625)"/>
        <path id="DejaVuSans-35" d="M 691 4666 
L 3169 4666 
L 3169 4134 
L 1269 4134 
L 1269 2991 
Q 1406 3038 1543 3061 
Q 1681 3084 1819 3084 
Q 2600 3084 3056 2656 
Q 3513 2228 3513 1497 
Q 3513 744 3044 326 
Q 2575 -91 1722 -91 
Q 1428 -91 1123 -41 
Q 819 9 494 109 
L 494 744 
Q 775 591 1075 516 
Q 1375 441 1709 441 
Q 2250 441 2565 725 
Q 2881 1009 2881 1497 
Q 2881 1984 2565 2268 
Q 2250 2553 1709 2553 
Q 1456 2553 1204 2497 
Q 953 2441 691 2322 
L 691 4666 
z
" transform="scale(0.015625)"/>
       </defs>
       <use xlink:href="#DejaVuSans-33"/>
       <use xlink:href="#DejaVuSans-2e" transform="translate(63.623047 0)"/>
       <use xlink:href="#DejaVuSans-35" transform="translate(95.410156 0)"/>
      </g>
     </g>
    </g>
    <g id="xtick_2">
     <g id="line2d_3">
      <path d="M 164.569203 317.72 
L 164.569203 33.36 
" clip-path="url(#pd372f8f485)" style="fill: none; stroke: #b0b0b0; stroke-opacity: 0.6; stroke-width: 0.8; stroke-linecap: square"/>
     </g>
     <g id="line2d_4">
      <g>
       <use xlink:href="#me477cf536c" x="164.569203" y="317.72" style="stroke: #000000; stroke-width: 0.8"/>
      </g>
     </g>
     <g id="text_2">
      <!-- 4.0 -->
      <g transform="translate(156.617641 332.318437) scale(0.1 -0.1)">
       <defs>
        <path id="DejaVuSans-34" d="M 2419 4116 
L 825 1625 
L 2419 1625 
L 2419 4116 
z
M 2253 4666 
L 3047 4666 
L 3047 1625 
L 3713 1625 
L 3713 1100 
L 3047 1100 
L 3047 0 
L 2419 0 
L 2419 1100 
L 313 1100 
L 313 1709 
L 2253 4666 
z
" transform="scale(0.015625)"/>
        <path id="DejaVuSans-30" d="M 2034 4250 
Q 1547 4250 1301 3770 
Q 1056 3291 1056 2328 
Q 1056 1369 1301 889 
Q 1547 409 2034 409 
Q 2525 409 2770 889 
Q 3016 1369 3016 2328 
Q 3016 3291 2770 3770 
Q 2525 4250 2034 4250 
z
M 2034 4750 
Q 2819 4750 3233 4129 
Q 3647 3509 3647 2328 
Q 3647 1150 3233 529 
Q 2819 -91 2034 -91 
Q 1250 -91 836 529 
Q 422 1150 422 2328 
Q 422 3509 836 4129 
Q 1250 4750 2034 4750 
z
" transform="scale(0.015625)"/>
       </defs>
       <use xlink:href="#DejaVuSans-34"/>
       <use xlink:href="#DejaVuSans-2e" transform="translate(63.623047 0)"/>
       <use xlink:href="#DejaVuSans-30" transform="translate(95.410156 0)"/>
      </g>
     </g>
    </g>
    <g id="xtick_3">
     <g id="line2d_5">
      <path d="M 250.670626 317.72 
L 250.670626 33.36 
" clip-path="url(#pd372f8f485)" style="fill: none; stroke: #b0b0b0; stroke-opacity: 0.6; stroke-width: 0.8; stroke-linecap: square"/>
     </g>
     <g id="line2d_6">
      <g>
       <use xlink:href="#me477cf536c" x="250.670626" y="317.72" style="stroke: #000000; stroke-width: 0.8"/>
      </g>
     </g>
     <g id="text_3">
      <!-- 4.5 -->
      <g transform="translate(242.719063 332.318437) scale(0.1 -0.1)">
       <use xlink:href="#DejaVuSans-34"/>
       <use xlink:href="#DejaVuSans-2e" transform="translate(63.623047 0)"/>
       <use xlink:href="#DejaVuSans-35" transform="translate(95.410156 0)"/>
      </g>
     </g>
    </g>
    <g id="xtick_4">
     <g id="line2d_7">
      <path d="M 336.772049 317.72 
L 336.772049 33.36 
" clip-path="url(#pd372f8f485)" style="fill: none; stroke: #b0b0b0; stroke-opacity: 0.6; stroke-width: 0.8; stroke-linecap: square"/>
     </g>
     <g id="line2d_8">
      <g>
       <use xlink:href="#me477cf536c" x="336.772049" y="317.72" style="stroke: #000000; stroke-width: 0.8"/>
      </g>
     </g>
     <g id="text_4">
      <!-- 5.0 -->
      <g transform="translate(328.820486 332.318437) scale(0.1 -0.1)">
       <use xlink:href="#DejaVuSans-35"/>
       <use xlink:href="#DejaVuSans-2e" transform="translate(63.623047 0)"/>
       <use xlink:href="#DejaVuSans-30" transform="translate(95.410156 0)"/>
      </g>
     </g>
    </g>
    <g id="xtick_5">
     <g id="line2d_9">
      <path d="M 422.873471 317.72 
L 422.873471 33.36 
" clip-path="url(#pd372f8f485)" style="fill: none; stroke: #b0b0b0; stroke-opacity: 0.6; stroke-width: 0.8; stroke-linecap: square"/>
     </g>
     <g id="line2d_10">
      <g>
       <use xlink:href="#me477cf536c" x="422.873471" y="317.72" style="stroke: #000000; stroke-width: 0.8"/>
      </g>
     </g>
     <g id="text_5">
      <!-- 5.5 -->
      <g transform="translate(414.921909 332.318437) scale(0.1 -0.1)">
       <use xlink:href="#DejaVuSans-35"/>
       <use xlink:href="#DejaVuSans-2e" transform="translate(63.623047 0)"/>
       <use xlink:href="#DejaVuSans-35" transform="translate(95.410156 0)"/>
      </g>
     </g>
    </g>
   </g>
   <g id="matplotlib.axis_2">
    <g id="ytick_1">
     <g id="line2d_11">
      <path d="M 30.58 273.295416 
L 449.652906 273.295416 
" clip-path="url(#pd372f8f485)" style="fill: none; stroke: #b0b0b0; stroke-opacity: 0.6; stroke-width: 0.8; stroke-linecap: square"/>
     </g>
     <g id="line2d_12">
      <defs>
       <path id="m79a7aed4f6" d="M 0 0 
L -3.5 0 
" style="stroke: #000000; stroke-width: 0.8"/>
      </defs>
      <g>
       <use xlink:href="#m79a7aed4f6" x="30.58" y="273.295416" style="stroke: #000000; stroke-width: 0.8"/>
      </g>
     </g>
     <g id="text_6">
      <!-- 12 -->
      <g transform="translate(10.855 277.094634) scale(0.1 -0.1)">
       <defs>
        <path id="DejaVuSans-31" d="M 794 531 
L 1825 531 
L 1825 4091 
L 703 3866 
L 703 4441 
L 1819 4666 
L 2450 4666 
L 2450 531 
L 3481 531 
L 3481 0 
L 794 0 
L 794 531 
z
" transform="scale(0.015625)"/>
        <path id="DejaVuSans-32" d="M 1228 531 
L 3431 531 
L 3431 0 
L 469 0 
L 469 531 
Q 828 903 1448 1529 
Q 2069 2156 2228 2338 
Q 2531 2678 2651 2914 
Q 2772 3150 2772 3378 
Q 2772 3750 2511 3984 
Q 2250 4219 1831 4219 
Q 1534 4219 1204 4116 
Q 875 4013 500 3803 
L 500 4441 
Q 881 4594 1212 4672 
Q 1544 4750 1819 4750 
Q 2544 4750 2975 4387 
Q 3406 4025 3406 3419 
Q 3406 3131 3298 2873 
Q 3191 2616 2906 2266 
Q 2828 2175 2409 1742 
Q 1991 1309 1228 531 
z
" transform="scale(0.015625)"/>
       </defs>
       <use xlink:href="#DejaVuSans-31"/>
       <use xlink:href="#DejaVuSans-32" transform="translate(63.623047 0)"/>
      </g>
     </g>
    </g>
    <g id="ytick_2">
     <g id="line2d_13">
      <path d="M 30.58 215.042957 
L 449.652906 215.042957 
" clip-path="url(#pd372f8f485)" style="fill: none; stroke: #b0b0b0; stroke-opacity: 0.6; stroke-width: 0.8; stroke-linecap: square"/>
     </g>
     <g id="line2d_14">
      <g>
       <use xlink:href="#m79a7aed4f6" x="30.58" y="215.042957" style="stroke: #000000; stroke-width: 0.8"/>
      </g>
     </g>
     <g id="text_7">
      <!-- 14 -->
      <g transform="translate(10.855 218.842176) scale(0.1 -0.1)">
       <use xlink:href="#DejaVuSans-31"/>
       <use xlink:href="#DejaVuSans-34" transform="translate(63.623047 0)"/>
      </g>
     </g>
    </g>
    <g id="ytick_3">
     <g id="line2d_15">
      <path d="M 30.58 156.790498 
L 449.652906 156.790498 
" clip-path="url(#pd372f8f485)" style="fill: none; stroke: #b0b0b0; stroke-opacity: 0.6; stroke-width: 0.8; stroke-linecap: square"/>
     </g>
     <g id="line2d_16">
      <g>
       <use xlink:href="#m79a7aed4f6" x="30.58" y="156.790498" style="stroke: #000000; stroke-width: 0.8"/>
      </g>
     </g>
     <g id="text_8">
      <!-- 16 -->
      <g transform="translate(10.855 160.589717) scale(0.1 -0.1)">
       <defs>
        <path id="DejaVuSans-36" d="M 2113 2584 
Q 1688 2584 1439 2293 
Q 1191 2003 1191 1497 
Q 1191 994 1439 701 
Q 1688 409 2113 409 
Q 2538 409 2786 701 
Q 3034 994 3034 1497 
Q 3034 2003 2786 2293 
Q 2538 2584 2113 2584 
z
M 3366 4563 
L 3366 3988 
Q 3128 4100 2886 4159 
Q 2644 4219 2406 4219 
Q 1781 4219 1451 3797 
Q 1122 3375 1075 2522 
Q 1259 2794 1537 2939 
Q 1816 3084 2150 3084 
Q 2853 3084 3261 2657 
Q 3669 2231 3669 1497 
Q 3669 778 3244 343 
Q 2819 -91 2113 -91 
Q 1303 -91 875 529 
Q 447 1150 447 2328 
Q 447 3434 972 4092 
Q 1497 4750 2381 4750 
Q 2619 4750 2861 4703 
Q 3103 4656 3366 4563 
z
" transform="scale(0.015625)"/>
       </defs>
       <use xlink:href="#DejaVuSans-31"/>
       <use xlink:href="#DejaVuSans-36" transform="translate(63.623047 0)"/>
      </g>
     </g>
    </g>
    <g id="ytick_4">
     <g id="line2d_17">
      <path d="M 30.58 98.538039 
L 449.652906 98.538039 
" clip-path="url(#pd372f8f485)" style="fill: none; stroke: #b0b0b0; stroke-opacity: 0.6; stroke-width: 0.8; stroke-linecap: square"/>
     </g>
     <g id="line2d_18">
      <g>
       <use xlink:href="#m79a7aed4f6" x="30.58" y="98.538039" style="stroke: #000000; stroke-width: 0.8"/>
      </g>
     </g>
     <g id="text_9">
      <!-- 18 -->
      <g transform="translate(10.855 102.337258) scale(0.1 -0.1)">
       <defs>
        <path id="DejaVuSans-38" d="M 2034 2216 
Q 1584 2216 1326 1975 
Q 1069 1734 1069 1313 
Q 1069 891 1326 650 
Q 1584 409 2034 409 
Q 2484 409 2743 651 
Q 3003 894 3003 1313 
Q 3003 1734 2745 1975 
Q 2488 2216 2034 2216 
z
M 1403 2484 
Q 997 2584 770 2862 
Q 544 3141 544 3541 
Q 544 4100 942 4425 
Q 1341 4750 2034 4750 
Q 2731 4750 3128 4425 
Q 3525 4100 3525 3541 
Q 3525 3141 3298 2862 
Q 3072 2584 2669 2484 
Q 3125 2378 3379 2068 
Q 3634 1759 3634 1313 
Q 3634 634 3220 271 
Q 2806 -91 2034 -91 
Q 1263 -91 848 271 
Q 434 634 434 1313 
Q 434 1759 690 2068 
Q 947 2378 1403 2484 
z
M 1172 3481 
Q 1172 3119 1398 2916 
Q 1625 2713 2034 2713 
Q 2441 2713 2670 2916 
Q 2900 3119 2900 3481 
Q 2900 3844 2670 4047 
Q 2441 4250 2034 4250 
Q 1625 4250 1398 4047 
Q 1172 3844 1172 3481 
z
" transform="scale(0.015625)"/>
       </defs>
       <use xlink:href="#DejaVuSans-31"/>
       <use xlink:href="#DejaVuSans-38" transform="translate(63.623047 0)"/>
      </g>
     </g>
    </g>
    <g id="ytick_5">
     <g id="line2d_19">
      <path d="M 30.58 40.285581 
L 449.652906 40.285581 
" clip-path="url(#pd372f8f485)" style="fill: none; stroke: #b0b0b0; stroke-opacity: 0.6; stroke-width: 0.8; stroke-linecap: square"/>
     </g>
     <g id="line2d_20">
      <g>
       <use xlink:href="#m79a7aed4f6" x="30.58" y="40.285581" style="stroke: #000000; stroke-width: 0.8"/>
      </g>
     </g>
     <g id="text_10">
      <!-- 20 -->
      <g transform="translate(10.855 44.084799) scale(0.1 -0.1)">
       <use xlink:href="#DejaVuSans-32"/>
       <use xlink:href="#DejaVuSans-30" transform="translate(63.623047 0)"/>
      </g>
     </g>
    </g>
   </g>
   <g id="patch_3">
    <path d="M 30.58 317.72 
L 30.58 33.36 
" style="fill: none; stroke: #000000; stroke-width: 0.8; stroke-linejoin: miter; stroke-linecap: square"/>
   </g>
   <g id="patch_4">
    <path d="M 449.652906 317.72 
L 449.652906 33.36 
" style="fill: none; stroke: #000000; stroke-width: 0.8; stroke-linejoin: miter; stroke-linecap: square"/>
   </g>
   <g id="patch_5">
    <path d="M 30.58 317.72 
L 449.652906 317.72 
" style="fill: none; stroke: #000000; stroke-width: 0.8; stroke-linejoin: miter; stroke-linecap: square"/>
   </g>
   <g id="patch_6">
    <path d="M 30.58 33.36 
L 449.652906 33.36 
" style="fill: none; stroke: #000000; stroke-width: 0.8; stroke-linejoin: miter; stroke-linecap: square"/>
   </g>
   <g id="text_11">
    <!-- 0 -->
    <g transform="translate(273.489428 282.835376) scale(0.18 -0.18)">
     <defs>
      <path id="Georgia-30" d="M 3209 2919 
Q 3409 2678 3507 2354 
Q 3606 2031 3606 1678 
Q 3606 1253 3484 917 
Q 3363 581 3150 359 
Q 2931 131 2631 15 
Q 2331 -100 1963 -100 
Q 1559 -100 1243 34 
Q 928 169 731 403 
Q 525 647 423 973 
Q 322 1300 322 1678 
Q 322 2050 420 2362 
Q 519 2675 728 2928 
Q 928 3172 1243 3312 
Q 1559 3453 1966 3453 
Q 2394 3453 2700 3309 
Q 3006 3166 3209 2919 
z
M 2916 1678 
Q 2916 2422 2661 2831 
Q 2406 3241 1969 3241 
Q 1525 3241 1269 2831 
Q 1013 2422 1013 1678 
Q 1013 972 1258 542 
Q 1503 113 1963 113 
Q 2422 113 2669 542 
Q 2916 972 2916 1678 
z
" transform="scale(0.015625)"/>
     </defs>
     <use xlink:href="#Georgia-30"/>
    </g>
   </g>
   <g id="text_12">
    <!-- 1 -->
    <g transform="translate(317.286544 270.808212) scale(0.18 -0.18)">
     <defs>
      <path id="Georgia-31" d="M 2528 0 
L 422 0 
L 422 222 
Q 516 228 714 248 
Q 913 269 988 291 
Q 1084 322 1136 392 
Q 1188 463 1188 603 
L 1188 2797 
L 409 2797 
L 409 3059 
L 581 3059 
Q 919 3059 1186 3184 
Q 1453 3309 1569 3453 
L 1828 3453 
Q 1819 3250 1809 2978 
Q 1800 2706 1800 2491 
L 1800 638 
Q 1800 528 1848 442 
Q 1897 356 1988 316 
Q 2069 281 2253 253 
Q 2438 225 2528 222 
L 2528 0 
z
" transform="scale(0.015625)"/>
     </defs>
     <use xlink:href="#Georgia-31"/>
    </g>
   </g>
   <g id="text_13">
    <!-- 2 -->
    <g transform="translate(238.736781 279.942574) scale(0.18 -0.18)">
     <defs>
      <path id="Georgia-32" d="M 3272 0 
L 344 0 
L 344 425 
Q 428 522 578 642 
Q 728 763 934 903 
Q 1059 988 1234 1088 
Q 1409 1188 1631 1306 
Q 1878 1438 2011 1538 
Q 2144 1638 2253 1784 
Q 2325 1881 2369 2026 
Q 2413 2172 2413 2441 
Q 2413 2831 2203 3014 
Q 1994 3197 1666 3197 
Q 1463 3197 1281 3117 
Q 1100 3038 1009 2897 
Q 1031 2797 1064 2659 
Q 1097 2522 1097 2391 
Q 1097 2272 998 2180 
Q 900 2088 706 2088 
Q 550 2088 465 2195 
Q 381 2303 381 2484 
Q 381 2653 475 2823 
Q 569 2994 744 3138 
Q 916 3278 1169 3365 
Q 1422 3453 1716 3453 
Q 2356 3453 2732 3167 
Q 3109 2881 3109 2403 
Q 3109 2175 3042 1987 
Q 2975 1800 2825 1656 
Q 2659 1497 2437 1383 
Q 2216 1269 1759 1066 
Q 1488 944 1253 811 
Q 1019 678 869 553 
L 3272 553 
L 3272 0 
z
" transform="scale(0.015625)"/>
     </defs>
     <use xlink:href="#Georgia-32"/>
    </g>
   </g>
   <g id="text_14">
    <!-- 3 -->
    <g transform="translate(334.515105 280.147429) scale(0.18 -0.18)">
     <defs>
      <path id="Georgia-33" d="M 1522 -1141 
Q 1228 -1141 984 -1067 
Q 741 -994 566 -869 
Q 391 -744 295 -581 
Q 200 -419 200 -247 
Q 200 -94 275 29 
Q 350 153 516 153 
Q 703 153 801 61 
Q 900 -31 900 -150 
Q 900 -250 867 -403 
Q 834 -556 816 -622 
Q 838 -650 895 -697 
Q 953 -744 1038 -781 
Q 1138 -828 1247 -856 
Q 1356 -884 1556 -884 
Q 1744 -884 1917 -821 
Q 2091 -759 2222 -622 
Q 2359 -478 2436 -286 
Q 2513 -94 2513 219 
Q 2513 388 2477 553 
Q 2441 719 2344 841 
Q 2247 963 2080 1030 
Q 1913 1097 1656 1097 
L 1247 1097 
L 1247 1456 
L 1519 1456 
Q 1950 1456 2140 1693 
Q 2331 1931 2331 2409 
Q 2331 2800 2147 2998 
Q 1963 3197 1625 3197 
Q 1463 3197 1358 3158 
Q 1253 3119 1188 3081 
Q 1109 3038 1059 2984 
Q 1009 2931 984 2906 
Q 1006 2806 1037 2661 
Q 1069 2516 1069 2384 
Q 1069 2269 970 2176 
Q 872 2084 681 2084 
Q 516 2084 439 2203 
Q 363 2322 363 2478 
Q 363 2641 453 2809 
Q 544 2978 722 3125 
Q 900 3272 1156 3362 
Q 1413 3453 1747 3453 
Q 2131 3453 2382 3339 
Q 2634 3225 2778 3063 
Q 2919 2903 2972 2728 
Q 3025 2553 3025 2428 
Q 3025 2272 2981 2114 
Q 2938 1956 2838 1822 
Q 2728 1675 2548 1554 
Q 2369 1434 2097 1359 
L 2097 1309 
Q 2272 1294 2470 1231 
Q 2669 1169 2828 1047 
Q 2994 919 3100 717 
Q 3206 516 3206 206 
Q 3206 -394 2725 -767 
Q 2244 -1141 1522 -1141 
z
" transform="scale(0.015625)"/>
     </defs>
     <use xlink:href="#Georgia-33"/>
    </g>
   </g>
   <g id="text_15">
    <!-- 4 -->
    <g transform="translate(305.878706 294.674656) scale(0.18 -0.18)">
     <defs>
      <path id="Georgia-34" d="M 3388 281 
L 2753 281 
L 2753 -1141 
L 2153 -1141 
L 2153 281 
L 153 281 
L 153 763 
L 2344 3434 
L 2753 3434 
L 2753 691 
L 3388 691 
L 3388 281 
z
M 2153 691 
L 2153 2738 
L 466 691 
L 2153 691 
z
" transform="scale(0.015625)"/>
     </defs>
     <use xlink:href="#Georgia-34"/>
    </g>
   </g>
   <g id="text_16">
    <!-- 5 -->
    <g transform="translate(369.520987 286.71798) scale(0.18 -0.18)">
     <defs>
      <path id="Georgia-35" d="M 2634 1466 
Q 2841 1303 2977 1047 
Q 3113 791 3113 406 
Q 3113 -266 2653 -703 
Q 2194 -1141 1488 -1141 
Q 941 -1141 562 -881 
Q 184 -622 184 -278 
Q 184 -119 262 0 
Q 341 119 503 119 
Q 691 119 789 20 
Q 888 -78 888 -194 
Q 888 -294 853 -444 
Q 819 -594 800 -666 
Q 825 -688 881 -725 
Q 938 -763 1016 -797 
Q 1097 -831 1214 -857 
Q 1331 -884 1488 -884 
Q 1688 -884 1866 -803 
Q 2044 -722 2166 -563 
Q 2300 -388 2367 -164 
Q 2434 59 2434 403 
Q 2434 844 2189 1133 
Q 1944 1422 1544 1422 
Q 1294 1422 1076 1328 
Q 859 1234 688 1016 
L 478 1097 
L 744 3353 
L 2981 3353 
L 2981 2797 
L 997 2797 
L 834 1472 
Q 975 1572 1204 1670 
Q 1434 1769 1709 1769 
Q 1938 1769 2183 1698 
Q 2428 1628 2634 1466 
z
" transform="scale(0.015625)"/>
     </defs>
     <use xlink:href="#Georgia-35"/>
    </g>
   </g>
   <g id="text_17">
    <!-- 6 -->
    <g transform="translate(430.102681 274.109501) scale(0.18 -0.18)">
     <defs>
      <path id="Georgia-36" d="M 3359 1441 
Q 3359 1116 3242 831 
Q 3125 547 2928 347 
Q 2700 119 2423 9 
Q 2147 -100 1847 -100 
Q 1500 -100 1219 28 
Q 938 156 741 391 
Q 541 628 431 972 
Q 322 1316 322 1744 
Q 322 2859 986 3625 
Q 1650 4391 2766 4544 
L 2822 4263 
L 2541 4213 
Q 1863 3994 1492 3531 
Q 1122 3069 1013 2409 
Q 1281 2644 1543 2741 
Q 1806 2838 2097 2838 
Q 2619 2838 2989 2438 
Q 3359 2038 3359 1441 
z
M 2681 1356 
Q 2681 1863 2448 2169 
Q 2216 2475 1825 2475 
Q 1591 2475 1389 2387 
Q 1188 2300 1000 2094 
Q 997 2056 990 1920 
Q 984 1784 984 1706 
Q 984 975 1223 561 
Q 1463 147 1853 147 
Q 2225 147 2453 470 
Q 2681 794 2681 1356 
z
" transform="scale(0.015625)"/>
     </defs>
     <use xlink:href="#Georgia-36"/>
    </g>
   </g>
   <g id="text_18">
    <!-- 7 -->
    <g transform="translate(371.796002 278.650586) scale(0.18 -0.18)">
     <defs>
      <path id="Georgia-37" d="M 3216 3150 
L 988 -1141 
L 597 -1141 
L 2694 2828 
L 1466 2828 
Q 1194 2828 1041 2822 
Q 888 2816 759 2763 
Q 663 2722 586 2555 
Q 509 2388 469 2128 
L 278 2128 
L 278 3353 
L 3216 3353 
L 3216 3150 
z
" transform="scale(0.015625)"/>
     </defs>
     <use xlink:href="#Georgia-37"/>
    </g>
   </g>
   <g id="text_19">
    <!-- 8 -->
    <g transform="translate(238.516555 294.860567) scale(0.18 -0.18)">
     <defs>
      <path id="Georgia-38" d="M 3491 1175 
Q 3491 650 3037 272 
Q 2584 -106 1847 -106 
Q 1156 -106 740 241 
Q 325 588 325 1134 
Q 325 1538 570 1808 
Q 816 2078 1297 2266 
Q 900 2488 703 2753 
Q 506 3019 506 3353 
Q 506 3863 939 4206 
Q 1372 4550 1975 4550 
Q 2578 4550 2951 4225 
Q 3325 3900 3325 3409 
Q 3325 3094 3119 2811 
Q 2913 2528 2513 2347 
Q 3031 2125 3261 1856 
Q 3491 1588 3491 1175 
z
M 2734 3444 
Q 2734 3825 2507 4064 
Q 2281 4303 1928 4303 
Q 1575 4303 1350 4073 
Q 1125 3844 1125 3503 
Q 1125 3175 1381 2947 
Q 1638 2719 2294 2459 
Q 2528 2609 2631 2856 
Q 2734 3103 2734 3444 
z
M 2866 1028 
Q 2866 1225 2781 1373 
Q 2697 1522 2538 1644 
Q 2384 1763 2111 1892 
Q 1838 2022 1519 2156 
Q 1219 1994 1078 1742 
Q 938 1491 938 1169 
Q 938 709 1208 426 
Q 1478 144 1928 144 
Q 2359 144 2612 394 
Q 2866 644 2866 1028 
z
" transform="scale(0.015625)"/>
     </defs>
     <use xlink:href="#Georgia-38"/>
    </g>
   </g>
   <g id="text_20">
    <!-- 9 -->
    <g transform="translate(236.38187 266.440205) scale(0.18 -0.18)">
     <defs>
      <path id="Georgia-39" d="M 3300 1613 
Q 3300 1069 3128 589 
Q 2956 109 2634 -253 
Q 2319 -609 1864 -845 
Q 1409 -1081 847 -1156 
L 791 -875 
L 1072 -825 
Q 1744 -613 2122 -172 
Q 2500 269 2609 947 
Q 2353 728 2098 626 
Q 1844 525 1525 525 
Q 1016 525 639 922 
Q 263 1319 263 1922 
Q 263 2569 698 3012 
Q 1134 3456 1775 3456 
Q 2472 3456 2886 2959 
Q 3300 2463 3300 1613 
z
M 2638 1650 
Q 2638 2381 2398 2795 
Q 2159 3209 1769 3209 
Q 1397 3209 1169 2889 
Q 941 2569 941 2006 
Q 941 1500 1173 1194 
Q 1406 888 1797 888 
Q 2041 888 2244 977 
Q 2447 1066 2622 1263 
Q 2622 1275 2626 1312 
Q 2631 1350 2631 1419 
Q 2631 1463 2634 1525 
Q 2638 1588 2638 1650 
z
" transform="scale(0.015625)"/>
     </defs>
     <use xlink:href="#Georgia-39"/>
    </g>
   </g>
   <g id="text_21">
    <!-- Q -->
    <g transform="translate(397.510995 56.74872) scale(0.18 -0.18)">
     <defs>
      <path id="Georgia-51" d="M 3888 3909 
Q 4181 3603 4347 3170 
Q 4513 2738 4513 2213 
Q 4513 1794 4403 1437 
Q 4294 1081 4094 800 
Q 3903 531 3640 331 
Q 3378 131 3053 16 
Q 3059 -328 3300 -601 
Q 3541 -875 3819 -875 
Q 4075 -875 4209 -858 
Q 4344 -841 4431 -825 
L 4431 -1072 
Q 4291 -1113 4080 -1158 
Q 3869 -1203 3494 -1203 
Q 3284 -1203 3084 -1142 
Q 2884 -1081 2722 -947 
Q 2559 -813 2451 -606 
Q 2344 -400 2313 -100 
Q 1866 -84 1484 92 
Q 1103 269 831 575 
Q 556 884 403 1301 
Q 250 1719 250 2213 
Q 250 2753 419 3176 
Q 588 3600 884 3909 
Q 1178 4216 1567 4378 
Q 1956 4541 2381 4541 
Q 2822 4541 3212 4375 
Q 3603 4209 3888 3909 
z
M 3422 766 
Q 3597 1050 3676 1409 
Q 3756 1769 3756 2213 
Q 3756 2669 3667 3050 
Q 3578 3431 3406 3700 
Q 3234 3966 2975 4114 
Q 2716 4263 2381 4263 
Q 2006 4263 1743 4091 
Q 1481 3919 1316 3631 
Q 1159 3356 1082 2987 
Q 1006 2619 1006 2213 
Q 1006 1763 1087 1400 
Q 1169 1038 1344 756 
Q 1513 481 1769 326 
Q 2025 172 2381 172 
Q 2716 172 2984 328 
Q 3253 484 3422 766 
z
" transform="scale(0.015625)"/>
     </defs>
     <use xlink:href="#Georgia-51"/>
    </g>
   </g>
   <g id="text_22">
    <!-- W -->
    <g transform="translate(178.610238 73.609987) scale(0.18 -0.18)">
     <defs>
      <path id="Georgia-57" d="M 6338 4213 
Q 6259 4209 6156 4176 
Q 6053 4144 5966 4091 
Q 5856 4022 5789 3933 
Q 5722 3844 5672 3684 
Q 5450 2963 5156 1998 
Q 4863 1034 4522 -56 
L 4234 -56 
L 3116 3356 
L 1950 -56 
L 1675 -56 
Q 1366 1038 1034 2214 
Q 703 3391 591 3791 
Q 563 3888 508 3963 
Q 453 4038 359 4100 
Q 281 4153 176 4179 
Q 72 4206 -13 4213 
L -13 4434 
L 1797 4434 
L 1797 4213 
Q 1559 4200 1392 4165 
Q 1225 4131 1225 4050 
Q 1225 4019 1234 3967 
Q 1244 3916 1250 3884 
Q 1322 3609 1505 2976 
Q 1688 2344 2047 1081 
L 3153 4372 
L 3459 4372 
L 4575 1009 
Q 4800 1784 4962 2364 
Q 5125 2944 5231 3356 
Q 5306 3647 5325 3755 
Q 5344 3863 5344 3938 
Q 5344 4044 5198 4116 
Q 5053 4188 4728 4213 
L 4728 4434 
L 6338 4434 
L 6338 4213 
z
" transform="scale(0.015625)"/>
     </defs>
     <use xlink:href="#Georgia-57"/>
    </g>
   </g>
   <g id="text_23">
    <!-- E -->
    <g transform="translate(377.057621 117.202501) scale(0.18 -0.18)">
     <defs>
      <path id="Georgia-45" d="M 4034 1306 
L 3950 0 
L 269 0 
L 269 222 
Q 363 228 519 248 
Q 675 269 722 291 
Q 822 338 861 413 
Q 900 488 900 603 
L 900 3791 
Q 900 3894 865 3973 
Q 831 4053 722 4103 
Q 638 4144 495 4175 
Q 353 4206 269 4213 
L 269 4434 
L 3700 4434 
L 3700 3366 
L 3466 3366 
Q 3403 3603 3195 3870 
Q 2988 4138 2800 4163 
Q 2703 4175 2568 4181 
Q 2434 4188 2263 4188 
L 1566 4188 
L 1566 2425 
L 2066 2425 
Q 2306 2425 2417 2470 
Q 2528 2516 2613 2622 
Q 2681 2713 2729 2864 
Q 2778 3016 2794 3150 
L 3028 3150 
L 3028 1416 
L 2794 1416 
Q 2781 1566 2726 1733 
Q 2672 1900 2613 1975 
Q 2516 2097 2392 2134 
Q 2269 2172 2066 2172 
L 1566 2172 
L 1566 841 
Q 1566 641 1594 525 
Q 1622 409 1703 350 
Q 1784 291 1925 273 
Q 2066 256 2325 256 
Q 2428 256 2597 256 
Q 2766 256 2881 269 
Q 3000 281 3126 314 
Q 3253 347 3306 403 
Q 3450 553 3608 858 
Q 3766 1163 3809 1306 
L 4034 1306 
z
" transform="scale(0.015625)"/>
     </defs>
     <use xlink:href="#Georgia-45"/>
    </g>
   </g>
   <g id="text_24">
    <!-- R -->
    <g transform="translate(78.537337 98.347238) scale(0.18 -0.18)">
     <defs>
      <path id="Georgia-52" d="M 4625 0 
L 3431 0 
Q 3034 622 2714 1075 
Q 2394 1528 2019 2009 
L 1566 2009 
L 1566 603 
Q 1566 494 1600 411 
Q 1634 328 1747 284 
Q 1803 263 1943 244 
Q 2084 225 2181 222 
L 2181 0 
L 306 0 
L 306 222 
Q 381 228 523 243 
Q 666 259 722 284 
Q 816 325 858 403 
Q 900 481 900 603 
L 900 3809 
Q 900 3919 869 4003 
Q 838 4088 722 4131 
Q 644 4159 519 4182 
Q 394 4206 306 4213 
L 306 4434 
L 2353 4434 
Q 2634 4434 2881 4376 
Q 3128 4319 3328 4191 
Q 3522 4066 3637 3864 
Q 3753 3663 3753 3378 
Q 3753 3122 3675 2925 
Q 3597 2728 3444 2584 
Q 3303 2450 3106 2351 
Q 2909 2253 2672 2184 
Q 3000 1750 3217 1453 
Q 3434 1156 3750 731 
Q 3888 544 3998 455 
Q 4109 366 4219 309 
Q 4300 269 4422 247 
Q 4544 225 4625 222 
L 4625 0 
z
M 2981 3306 
Q 2981 3709 2750 3945 
Q 2519 4181 2097 4181 
L 1566 4181 
L 1566 2278 
L 1975 2278 
Q 2406 2278 2693 2554 
Q 2981 2831 2981 3306 
z
" transform="scale(0.015625)"/>
     </defs>
     <use xlink:href="#Georgia-52"/>
    </g>
   </g>
   <g id="text_25">
    <!-- T -->
    <g transform="translate(246.149506 92.479749) scale(0.18 -0.18)">
     <defs>
      <path id="Georgia-54" d="M 3909 3231 
L 3694 3231 
Q 3666 3344 3592 3498 
Q 3519 3653 3428 3791 
Q 3334 3934 3223 4042 
Q 3113 4150 3009 4166 
Q 2913 4178 2766 4184 
Q 2619 4191 2494 4191 
L 2313 4191 
L 2313 644 
Q 2313 541 2356 455 
Q 2400 369 2509 322 
Q 2566 300 2745 262 
Q 2925 225 3025 222 
L 3025 0 
L 931 0 
L 931 222 
Q 1019 228 1198 247 
Q 1378 266 1447 294 
Q 1550 334 1598 411 
Q 1647 488 1647 616 
L 1647 4191 
L 1466 4191 
Q 1369 4191 1225 4186 
Q 1081 4181 950 4166 
Q 847 4153 736 4042 
Q 625 3931 531 3791 
Q 438 3650 366 3492 
Q 294 3334 266 3231 
L 47 3231 
L 47 4434 
L 3909 4434 
L 3909 3231 
z
" transform="scale(0.015625)"/>
     </defs>
     <use xlink:href="#Georgia-54"/>
    </g>
   </g>
   <g id="text_26">
    <!-- Y -->
    <g transform="translate(316.067991 54.573564) scale(0.18 -0.18)">
     <defs>
      <path id="Georgia-59" d="M 4106 4213 
Q 4053 4209 3937 4170 
Q 3822 4131 3772 4094 
Q 3650 4019 3606 3978 
Q 3563 3938 3438 3766 
Q 3194 3422 2987 3069 
Q 2781 2716 2472 2172 
Q 2356 1972 2318 1850 
Q 2281 1728 2281 1497 
L 2281 650 
Q 2281 538 2326 455 
Q 2372 372 2481 322 
Q 2547 297 2715 261 
Q 2884 225 2988 222 
L 2988 0 
L 913 0 
L 913 222 
Q 1000 228 1175 245 
Q 1350 263 1419 291 
Q 1531 338 1573 419 
Q 1616 500 1616 619 
L 1616 1697 
Q 1616 1747 1555 1880 
Q 1494 2013 1409 2175 
Q 1222 2538 994 2959 
Q 766 3381 597 3681 
Q 494 3859 414 3950 
Q 334 4041 231 4109 
Q 156 4156 51 4181 
Q -53 4206 -138 4213 
L -138 4434 
L 1753 4434 
L 1753 4213 
Q 1434 4206 1303 4168 
Q 1172 4131 1172 4063 
Q 1172 4044 1190 3997 
Q 1209 3950 1244 3878 
Q 1284 3797 1340 3692 
Q 1397 3588 1447 3491 
Q 1594 3213 1747 2936 
Q 1900 2659 2147 2216 
Q 2638 3006 2895 3448 
Q 3153 3891 3153 3978 
Q 3153 4050 3100 4094 
Q 3047 4138 2959 4163 
Q 2869 4188 2762 4195 
Q 2656 4203 2566 4213 
L 2566 4434 
L 4106 4434 
L 4106 4213 
z
" transform="scale(0.015625)"/>
     </defs>
     <use xlink:href="#Georgia-59"/>
    </g>
   </g>
   <g id="text_27">
    <!-- U -->
    <g transform="translate(419.000139 90.701359) scale(0.18 -0.18)">
     <defs>
      <path id="Georgia-55" d="M 4791 4213 
Q 4703 4209 4534 4175 
Q 4366 4141 4259 4072 
Q 4153 4000 4112 3775 
Q 4072 3550 4072 3225 
L 4072 1297 
Q 4072 928 3919 656 
Q 3766 384 3516 209 
Q 3269 41 2995 -32 
Q 2722 -106 2472 -106 
Q 2072 -106 1759 -1 
Q 1447 103 1234 281 
Q 1025 459 919 689 
Q 813 919 813 1169 
L 813 3791 
Q 813 3900 777 3973 
Q 741 4047 631 4109 
Q 553 4153 431 4179 
Q 309 4206 231 4213 
L 231 4434 
L 2078 4434 
L 2078 4213 
Q 1991 4209 1858 4184 
Q 1725 4159 1663 4138 
Q 1556 4100 1520 4012 
Q 1484 3925 1484 3822 
L 1484 1372 
Q 1484 1194 1523 998 
Q 1563 803 1678 634 
Q 1800 463 2009 353 
Q 2219 244 2584 244 
Q 2928 244 3161 353 
Q 3394 463 3528 641 
Q 3656 809 3709 993 
Q 3763 1178 3763 1366 
L 3763 3184 
Q 3763 3531 3713 3751 
Q 3663 3972 3566 4041 
Q 3456 4119 3267 4162 
Q 3078 4206 2978 4213 
L 2978 4434 
L 4791 4434 
L 4791 4213 
z
" transform="scale(0.015625)"/>
     </defs>
     <use xlink:href="#Georgia-55"/>
    </g>
   </g>
   <g id="text_28">
    <!-- I -->
    <g transform="translate(323.983246 120.683729) scale(0.18 -0.18)">
     <defs>
      <path id="Georgia-49" d="M 2244 0 
L 247 0 
L 247 222 
Q 331 228 490 240 
Q 650 253 716 278 
Q 819 319 866 389 
Q 913 459 913 584 
L 913 3797 
Q 913 3906 878 3979 
Q 844 4053 716 4103 
Q 622 4141 480 4173 
Q 338 4206 247 4213 
L 247 4434 
L 2244 4434 
L 2244 4213 
Q 2147 4209 2012 4189 
Q 1878 4169 1778 4138 
Q 1659 4100 1618 4015 
Q 1578 3931 1578 3828 
L 1578 619 
Q 1578 516 1623 436 
Q 1669 356 1778 309 
Q 1844 284 1992 254 
Q 2141 225 2244 222 
L 2244 0 
z
" transform="scale(0.015625)"/>
     </defs>
     <use xlink:href="#Georgia-49"/>
    </g>
   </g>
   <g id="text_29">
    <!-- O -->
    <g transform="translate(416.966289 108.427933) scale(0.18 -0.18)">
     <defs>
      <path id="Georgia-4f" d="M 3888 3909 
Q 4181 3603 4347 3170 
Q 4513 2738 4513 2213 
Q 4513 1684 4344 1253 
Q 4175 822 3875 519 
Q 3584 219 3200 56 
Q 2816 -106 2381 -106 
Q 1919 -106 1526 67 
Q 1134 241 853 550 
Q 572 853 411 1286 
Q 250 1719 250 2213 
Q 250 2753 419 3176 
Q 588 3600 884 3909 
Q 1178 4216 1567 4378 
Q 1956 4541 2381 4541 
Q 2822 4541 3212 4375 
Q 3603 4209 3888 3909 
z
M 3422 766 
Q 3597 1050 3676 1409 
Q 3756 1769 3756 2213 
Q 3756 2669 3667 3050 
Q 3578 3431 3406 3700 
Q 3234 3966 2975 4114 
Q 2716 4263 2381 4263 
Q 2006 4263 1743 4091 
Q 1481 3919 1316 3631 
Q 1159 3356 1082 2987 
Q 1006 2619 1006 2213 
Q 1006 1763 1087 1400 
Q 1169 1038 1344 756 
Q 1513 481 1769 326 
Q 2025 172 2381 172 
Q 2716 172 2984 328 
Q 3253 484 3422 766 
z
" transform="scale(0.015625)"/>
     </defs>
     <use xlink:href="#Georgia-4f"/>
    </g>
   </g>
   <g id="text_30">
    <!-- P -->
    <g transform="translate(250.761449 98.916388) scale(0.18 -0.18)">
     <defs>
      <path id="Georgia-50" d="M 3700 3341 
Q 3700 2994 3564 2726 
Q 3428 2459 3188 2284 
Q 2950 2109 2665 2028 
Q 2381 1947 2063 1947 
L 1566 1947 
L 1566 603 
Q 1566 494 1602 411 
Q 1638 328 1750 284 
Q 1806 263 1948 244 
Q 2091 225 2209 222 
L 2209 0 
L 306 0 
L 306 222 
Q 381 228 523 243 
Q 666 259 722 284 
Q 816 325 858 403 
Q 900 481 900 603 
L 900 3803 
Q 900 3913 869 4000 
Q 838 4088 722 4131 
Q 603 4172 486 4189 
Q 369 4206 284 4213 
L 284 4434 
L 2309 4434 
Q 2928 4434 3314 4136 
Q 3700 3838 3700 3341 
z
M 2750 2584 
Q 2856 2734 2890 2895 
Q 2925 3056 2925 3184 
Q 2925 3363 2883 3547 
Q 2841 3731 2738 3869 
Q 2628 4016 2450 4097 
Q 2272 4178 2006 4178 
L 1566 4178 
L 1566 2219 
L 1884 2219 
Q 2222 2219 2433 2323 
Q 2644 2428 2750 2584 
z
" transform="scale(0.015625)"/>
     </defs>
     <use xlink:href="#Georgia-50"/>
    </g>
   </g>
   <g id="text_31">
    <!-- L -->
    <g transform="translate(106.088 94.377525) scale(0.18 -0.18)">
     <defs>
      <path id="Georgia-4c" d="M 3866 1319 
L 3772 0 
L 306 0 
L 306 222 
Q 381 228 523 243 
Q 666 259 722 284 
Q 816 325 858 403 
Q 900 481 900 603 
L 900 3778 
Q 900 3884 864 3965 
Q 828 4047 722 4097 
Q 650 4134 520 4170 
Q 391 4206 306 4213 
L 306 4434 
L 2178 4434 
L 2178 4213 
Q 2091 4209 1952 4181 
Q 1813 4153 1750 4131 
Q 1644 4094 1605 4003 
Q 1566 3913 1566 3809 
L 1566 831 
Q 1566 625 1586 511 
Q 1606 397 1681 334 
Q 1753 278 1895 261 
Q 2038 244 2294 244 
Q 2409 244 2534 250 
Q 2659 256 2772 275 
Q 2881 294 2973 326 
Q 3066 359 3109 409 
Q 3238 553 3408 845 
Q 3578 1138 3644 1319 
L 3866 1319 
z
" transform="scale(0.015625)"/>
     </defs>
     <use xlink:href="#Georgia-4c"/>
    </g>
   </g>
   <g id="text_32">
    <!-- K -->
    <g transform="translate(230.109444 51.079336) scale(0.18 -0.18)">
     <defs>
      <path id="Georgia-4b" d="M 4609 0 
L 3366 0 
Q 3006 556 2567 1104 
Q 2128 1653 1647 2169 
L 1566 2169 
L 1566 625 
Q 1566 522 1605 440 
Q 1644 359 1747 309 
Q 1797 288 1933 256 
Q 2069 225 2159 222 
L 2159 0 
L 319 0 
L 319 222 
Q 391 228 528 240 
Q 666 253 722 278 
Q 816 319 858 398 
Q 900 478 900 591 
L 900 3791 
Q 900 3897 864 3975 
Q 828 4053 722 4103 
Q 638 4144 522 4175 
Q 406 4206 319 4213 
L 319 4434 
L 2159 4434 
L 2159 4213 
Q 2072 4209 1940 4184 
Q 1809 4159 1747 4138 
Q 1641 4100 1603 4012 
Q 1566 3925 1566 3822 
L 1566 2291 
L 1628 2291 
Q 1909 2528 2181 2786 
Q 2453 3044 2675 3300 
Q 2922 3584 3036 3754 
Q 3150 3925 3150 4056 
Q 3150 4103 3092 4133 
Q 3034 4163 2959 4181 
Q 2872 4200 2803 4204 
Q 2734 4209 2691 4213 
L 2691 4434 
L 4353 4434 
L 4353 4213 
Q 4344 4213 4312 4209 
Q 4281 4206 4241 4203 
Q 4197 4200 4153 4190 
Q 4109 4181 4041 4169 
Q 3931 4144 3814 4089 
Q 3697 4034 3622 3953 
Q 3300 3588 2950 3197 
Q 2600 2806 2256 2484 
Q 2731 1947 3042 1559 
Q 3353 1172 3703 731 
Q 3838 563 3972 461 
Q 4106 359 4203 309 
Q 4284 269 4406 247 
Q 4528 225 4609 222 
L 4609 0 
z
" transform="scale(0.015625)"/>
     </defs>
     <use xlink:href="#Georgia-4b"/>
    </g>
   </g>
   <g id="text_33">
    <!-- J -->
    <g transform="translate(220.595126 60.139506) scale(0.18 -0.18)">
     <defs>
      <path id="Georgia-4a" d="M 3144 4213 
Q 3056 4209 2926 4189 
Q 2797 4169 2706 4138 
Q 2600 4100 2562 4012 
Q 2525 3925 2525 3822 
L 2525 1194 
Q 2525 988 2442 756 
Q 2359 525 2200 344 
Q 2016 131 1761 12 
Q 1506 -106 1178 -106 
Q 669 -106 351 180 
Q 34 466 34 950 
Q 34 1163 143 1327 
Q 253 1491 463 1491 
Q 650 1491 764 1386 
Q 878 1281 878 1109 
Q 878 1009 837 909 
Q 797 809 747 731 
Q 700 659 640 562 
Q 581 466 556 388 
Q 622 284 761 206 
Q 900 128 1134 128 
Q 1363 128 1508 233 
Q 1653 338 1725 513 
Q 1794 675 1823 912 
Q 1853 1150 1853 1444 
L 1853 3791 
Q 1853 3900 1817 3973 
Q 1781 4047 1669 4103 
Q 1572 4153 1426 4179 
Q 1281 4206 1188 4213 
L 1188 4434 
L 3144 4434 
L 3144 4213 
z
" transform="scale(0.015625)"/>
     </defs>
     <use xlink:href="#Georgia-4a"/>
    </g>
   </g>
   <g id="text_34">
    <!-- H -->
    <g transform="translate(260.343428 76.501178) scale(0.18 -0.18)">
     <defs>
      <path id="Georgia-48" d="M 4897 0 
L 3056 0 
L 3056 222 
Q 3131 228 3273 240 
Q 3416 253 3469 278 
Q 3563 316 3606 392 
Q 3650 469 3650 591 
L 3650 2169 
L 1566 2169 
L 1566 625 
Q 1566 516 1602 441 
Q 1638 366 1744 309 
Q 1797 281 1933 253 
Q 2069 225 2147 222 
L 2147 0 
L 306 0 
L 306 222 
Q 381 228 523 240 
Q 666 253 719 278 
Q 813 316 856 392 
Q 900 469 900 591 
L 900 3791 
Q 900 3891 859 3973 
Q 819 4056 719 4103 
Q 634 4144 514 4175 
Q 394 4206 306 4213 
L 306 4434 
L 2147 4434 
L 2147 4213 
Q 2059 4209 1932 4184 
Q 1806 4159 1744 4138 
Q 1638 4100 1602 4012 
Q 1566 3925 1566 3822 
L 1566 2447 
L 3650 2447 
L 3650 3791 
Q 3650 3891 3609 3973 
Q 3569 4056 3469 4103 
Q 3384 4144 3264 4175 
Q 3144 4206 3056 4213 
L 3056 4434 
L 4897 4434 
L 4897 4213 
Q 4809 4209 4682 4184 
Q 4556 4159 4494 4138 
Q 4388 4100 4352 4012 
Q 4316 3925 4316 3822 
L 4316 625 
Q 4316 516 4352 441 
Q 4388 366 4494 309 
Q 4547 281 4683 253 
Q 4819 225 4897 222 
L 4897 0 
z
" transform="scale(0.015625)"/>
     </defs>
     <use xlink:href="#Georgia-48"/>
    </g>
   </g>
   <g id="text_35">
    <!-- G -->
    <g transform="translate(127.660119 55.185156) scale(0.18 -0.18)">
     <defs>
      <path id="Georgia-47" d="M 4597 1772 
Q 4522 1763 4395 1742 
Q 4269 1722 4191 1684 
Q 4097 1638 4058 1552 
Q 4019 1466 4019 1350 
L 4019 1006 
Q 4019 631 4023 500 
Q 4028 369 4034 284 
Q 3619 97 3206 -3 
Q 2794 -103 2397 -103 
Q 1972 -103 1578 56 
Q 1184 216 891 509 
Q 594 806 419 1231 
Q 244 1656 244 2181 
Q 244 2688 411 3120 
Q 578 3553 884 3872 
Q 1181 4184 1592 4357 
Q 2003 4531 2472 4531 
Q 2847 4531 3125 4440 
Q 3403 4350 3616 4222 
L 3744 4434 
L 3994 4434 
L 4022 2884 
L 3766 2884 
Q 3700 3141 3603 3389 
Q 3506 3638 3353 3834 
Q 3200 4031 2979 4148 
Q 2759 4266 2453 4266 
Q 2119 4266 1856 4130 
Q 1594 3994 1400 3725 
Q 1209 3466 1106 3078 
Q 1003 2691 1003 2213 
Q 1003 1791 1104 1417 
Q 1206 1044 1400 772 
Q 1594 494 1884 334 
Q 2175 175 2544 175 
Q 2819 175 3045 259 
Q 3272 344 3366 438 
Q 3391 600 3392 765 
Q 3394 931 3394 1047 
L 3394 1291 
Q 3394 1422 3358 1523 
Q 3322 1625 3209 1672 
Q 3106 1719 2929 1742 
Q 2753 1766 2653 1772 
L 2653 2000 
L 4597 2000 
L 4597 1772 
z
" transform="scale(0.015625)"/>
     </defs>
     <use xlink:href="#Georgia-47"/>
    </g>
   </g>
   <g id="text_36">
    <!-- F -->
    <g transform="translate(161.54155 87.082302) scale(0.18 -0.18)">
     <defs>
      <path id="Georgia-46" d="M 3747 3325 
L 3513 3325 
Q 3447 3572 3239 3853 
Q 3031 4134 2841 4163 
Q 2744 4175 2611 4181 
Q 2478 4188 2309 4188 
L 1566 4188 
L 1566 2406 
L 2075 2406 
Q 2306 2406 2434 2454 
Q 2563 2503 2653 2603 
Q 2716 2672 2767 2817 
Q 2819 2963 2834 3128 
L 3072 3128 
L 3072 1388 
L 2834 1388 
Q 2825 1525 2770 1700 
Q 2716 1875 2653 1953 
Q 2559 2069 2417 2111 
Q 2275 2153 2075 2153 
L 1566 2153 
L 1566 625 
Q 1566 522 1606 440 
Q 1647 359 1750 309 
Q 1797 288 1953 256 
Q 2109 225 2191 222 
L 2191 0 
L 269 0 
L 269 222 
Q 363 228 519 242 
Q 675 256 722 278 
Q 816 319 858 398 
Q 900 478 900 591 
L 900 3791 
Q 900 3894 865 3973 
Q 831 4053 722 4103 
Q 638 4144 495 4175 
Q 353 4206 269 4213 
L 269 4434 
L 3747 4434 
L 3747 3325 
z
" transform="scale(0.015625)"/>
     </defs>
     <use xlink:href="#Georgia-46"/>
    </g>
   </g>
   <g id="text_37">
    <!-- D -->
    <g transform="translate(56.516882 84.015672) scale(0.18 -0.18)">
     <defs>
      <path id="Georgia-44" d="M 4553 2191 
Q 4553 1625 4340 1209 
Q 4128 794 3788 528 
Q 3444 263 3016 131 
Q 2588 0 2131 0 
L 294 0 
L 294 222 
Q 384 222 529 239 
Q 675 256 722 278 
Q 816 319 858 398 
Q 900 478 900 591 
L 900 3791 
Q 900 3897 864 3981 
Q 828 4066 722 4116 
Q 625 4163 512 4184 
Q 400 4206 319 4213 
L 319 4434 
L 2256 4434 
Q 2656 4434 3043 4311 
Q 3431 4188 3719 3978 
Q 4109 3700 4331 3250 
Q 4553 2800 4553 2191 
z
M 3788 2194 
Q 3788 2641 3669 3002 
Q 3550 3363 3322 3631 
Q 3106 3888 2792 4034 
Q 2478 4181 2094 4181 
Q 1966 4181 1805 4176 
Q 1644 4172 1566 4169 
L 1566 759 
Q 1566 475 1731 365 
Q 1897 256 2241 256 
Q 2638 256 2934 397 
Q 3231 538 3416 788 
Q 3609 1050 3698 1395 
Q 3788 1741 3788 2194 
z
" transform="scale(0.015625)"/>
     </defs>
     <use xlink:href="#Georgia-44"/>
    </g>
   </g>
   <g id="text_38">
    <!-- S -->
    <g transform="translate(202.864527 108.876475) scale(0.18 -0.18)">
     <defs>
      <path id="Georgia-53" d="M 3066 2034 
Q 3206 1878 3273 1692 
Q 3341 1506 3341 1259 
Q 3341 672 2906 290 
Q 2472 -91 1828 -91 
Q 1531 -91 1234 1 
Q 938 94 722 225 
L 588 -3 
L 338 -3 
L 294 1516 
L 547 1516 
Q 625 1234 729 1007 
Q 834 781 1006 584 
Q 1169 400 1386 290 
Q 1603 181 1891 181 
Q 2106 181 2267 237 
Q 2428 294 2528 397 
Q 2628 500 2676 639 
Q 2725 778 2725 959 
Q 2725 1225 2575 1454 
Q 2425 1684 2128 1803 
Q 1925 1884 1662 1982 
Q 1400 2081 1209 2169 
Q 834 2338 626 2611 
Q 419 2884 419 3325 
Q 419 3578 522 3797 
Q 625 4016 816 4188 
Q 997 4350 1244 4442 
Q 1491 4534 1759 4534 
Q 2066 4534 2308 4440 
Q 2550 4347 2750 4222 
L 2878 4434 
L 3128 4434 
L 3153 2963 
L 2900 2963 
Q 2831 3216 2745 3447 
Q 2659 3678 2522 3866 
Q 2388 4047 2194 4155 
Q 2000 4263 1719 4263 
Q 1422 4263 1212 4072 
Q 1003 3881 1003 3606 
Q 1003 3319 1137 3130 
Q 1272 2941 1528 2819 
Q 1756 2709 1976 2629 
Q 2197 2550 2403 2459 
Q 2591 2378 2764 2275 
Q 2938 2172 3066 2034 
z
" transform="scale(0.015625)"/>
     </defs>
     <use xlink:href="#Georgia-53"/>
    </g>
   </g>
   <g id="text_39">
    <!-- A -->
    <g transform="translate(394.277232 124.817048) scale(0.18 -0.18)">
     <defs>
      <path id="Georgia-41" d="M 4441 0 
L 2594 0 
L 2594 222 
Q 2838 238 2998 284 
Q 3159 331 3159 400 
Q 3159 428 3153 468 
Q 3147 509 3134 541 
L 2766 1534 
L 1213 1534 
Q 1125 1316 1070 1153 
Q 1016 991 972 853 
Q 931 719 915 634 
Q 900 550 900 497 
Q 900 372 1097 303 
Q 1294 234 1541 222 
L 1541 0 
L -128 0 
L -128 222 
Q -47 228 75 258 
Q 197 288 275 338 
Q 400 422 469 514 
Q 538 606 603 769 
Q 938 1603 1341 2643 
Q 1744 3684 2059 4497 
L 2309 4497 
L 3788 672 
Q 3834 550 3893 475 
Q 3953 400 4059 328 
Q 4131 284 4247 254 
Q 4363 225 4441 222 
L 4441 0 
z
M 2653 1813 
L 1981 3531 
L 1322 1813 
L 2653 1813 
z
" transform="scale(0.015625)"/>
     </defs>
     <use xlink:href="#Georgia-41"/>
    </g>
   </g>
   <g id="text_40">
    <!-- Z -->
    <g transform="translate(308.61035 45.120405) scale(0.18 -0.18)">
     <defs>
      <path id="Georgia-5a" d="M 3794 1384 
L 3647 0 
L 84 0 
L 84 109 
L 2875 4188 
L 1853 4188 
Q 1675 4188 1554 4181 
Q 1434 4175 1334 4156 
Q 1128 4116 870 3816 
Q 613 3516 481 3181 
L 263 3181 
L 397 4434 
L 3719 4434 
L 3719 4325 
L 928 247 
L 1981 247 
Q 2247 247 2547 284 
Q 2847 322 2938 413 
Q 3141 606 3316 887 
Q 3491 1169 3575 1384 
L 3794 1384 
z
" transform="scale(0.015625)"/>
     </defs>
     <use xlink:href="#Georgia-5a"/>
    </g>
   </g>
   <g id="text_41">
    <!-- X -->
    <g transform="translate(390.323751 49.555271) scale(0.18 -0.18)">
     <defs>
      <path id="Georgia-58" d="M 4553 0 
L 2478 0 
L 2478 222 
Q 2734 228 2892 270 
Q 3050 313 3050 400 
Q 3050 447 2978 594 
Q 2906 741 2794 922 
Q 2669 1122 2497 1392 
Q 2325 1663 2156 1909 
Q 1881 1547 1531 1036 
Q 1181 525 1181 434 
Q 1181 331 1276 282 
Q 1372 234 1697 222 
L 1697 0 
L 41 0 
L 41 222 
Q 122 228 248 245 
Q 375 263 456 303 
Q 619 391 717 492 
Q 816 594 916 731 
Q 1116 1006 1428 1417 
Q 1741 1828 1981 2166 
Q 1800 2431 1519 2839 
Q 1238 3247 919 3713 
Q 784 3909 707 3990 
Q 631 4072 503 4131 
Q 428 4166 295 4186 
Q 163 4206 84 4213 
L 84 4434 
L 2138 4434 
L 2138 4213 
Q 1956 4206 1761 4167 
Q 1566 4128 1566 4047 
Q 1566 3988 1644 3839 
Q 1722 3691 1828 3522 
Q 1938 3347 2072 3134 
Q 2206 2922 2400 2644 
Q 2753 3122 3009 3506 
Q 3266 3891 3266 4006 
Q 3266 4106 3148 4153 
Q 3031 4200 2753 4213 
L 2753 4434 
L 4406 4434 
L 4406 4213 
Q 4328 4209 4201 4189 
Q 4075 4169 3991 4131 
Q 3828 4053 3748 3962 
Q 3669 3872 3534 3700 
Q 3284 3378 3073 3095 
Q 2863 2813 2566 2406 
Q 2816 2050 3123 1597 
Q 3431 1144 3713 731 
Q 3809 591 3934 464 
Q 4059 338 4138 291 
Q 4213 247 4339 236 
Q 4466 225 4553 222 
L 4553 0 
z
" transform="scale(0.015625)"/>
     </defs>
     <use xlink:href="#Georgia-58"/>
    </g>
   </g>
   <g id="text_42">
    <!-- C -->
    <g transform="translate(328.130513 249.1947) scale(0.18 -0.18)">
     <defs>
      <path id="Georgia-43" d="M 2259 -103 
Q 1863 -103 1498 53 
Q 1134 209 853 503 
Q 575 797 409 1220 
Q 244 1644 244 2175 
Q 244 2706 406 3139 
Q 569 3572 856 3884 
Q 1141 4194 1528 4362 
Q 1916 4531 2356 4531 
Q 2684 4531 2950 4450 
Q 3216 4369 3456 4222 
L 3584 4434 
L 3834 4434 
L 3863 2853 
L 3606 2853 
Q 3556 3084 3456 3354 
Q 3356 3625 3222 3813 
Q 3072 4025 2865 4145 
Q 2659 4266 2394 4266 
Q 2091 4266 1830 4131 
Q 1569 3997 1378 3734 
Q 1197 3481 1094 3090 
Q 991 2700 991 2219 
Q 991 1794 1098 1439 
Q 1206 1084 1406 816 
Q 1606 550 1879 400 
Q 2153 250 2491 250 
Q 2744 250 2956 329 
Q 3169 409 3325 541 
Q 3481 678 3600 853 
Q 3719 1028 3794 1234 
L 4028 1122 
Q 3759 463 3315 180 
Q 2872 -103 2259 -103 
z
" transform="scale(0.015625)"/>
     </defs>
     <use xlink:href="#Georgia-43"/>
    </g>
   </g>
   <g id="text_43">
    <!-- V -->
    <g transform="translate(322.190479 88.300098) scale(0.18 -0.18)">
     <defs>
      <path id="Georgia-56" d="M 4397 4213 
Q 4316 4209 4200 4176 
Q 4084 4144 4009 4097 
Q 3903 4031 3839 3928 
Q 3775 3825 3713 3684 
Q 3503 3188 3084 2136 
Q 2666 1084 2222 -56 
L 1963 -56 
Q 1513 1153 1094 2275 
Q 675 3397 525 3791 
Q 488 3888 425 3961 
Q 363 4034 259 4100 
Q 175 4153 72 4179 
Q -31 4206 -119 4213 
L -119 4434 
L 1716 4434 
L 1716 4213 
Q 1481 4200 1320 4165 
Q 1159 4131 1159 4044 
Q 1159 4009 1171 3962 
Q 1184 3916 1194 3888 
Q 1309 3581 1568 2889 
Q 1828 2197 2306 919 
Q 2544 1497 2853 2284 
Q 3163 3072 3269 3366 
Q 3372 3650 3389 3759 
Q 3406 3869 3406 3938 
Q 3406 4009 3342 4057 
Q 3278 4106 3172 4141 
Q 3069 4172 2962 4187 
Q 2856 4203 2747 4213 
L 2747 4434 
L 4397 4434 
L 4397 4213 
z
" transform="scale(0.015625)"/>
     </defs>
     <use xlink:href="#Georgia-56"/>
    </g>
   </g>
   <g id="text_44">
    <!-- B -->
    <g transform="translate(89.788996 70.238923) scale(0.18 -0.18)">
     <defs>
      <path id="Georgia-42" d="M 3450 2066 
Q 3644 1934 3772 1721 
Q 3900 1509 3900 1206 
Q 3900 897 3765 669 
Q 3631 441 3416 294 
Q 3206 150 2942 75 
Q 2678 0 2397 0 
L 297 0 
L 297 222 
Q 372 228 515 248 
Q 659 269 722 297 
Q 819 341 859 414 
Q 900 488 900 603 
L 900 3791 
Q 900 3897 864 3978 
Q 828 4059 722 4109 
Q 628 4156 512 4181 
Q 397 4206 319 4213 
L 319 4434 
L 2366 4434 
Q 2603 4434 2820 4387 
Q 3038 4341 3234 4222 
Q 3419 4113 3537 3925 
Q 3656 3738 3656 3469 
Q 3656 3234 3572 3051 
Q 3488 2869 3334 2738 
Q 3191 2613 3005 2527 
Q 2819 2441 2603 2394 
L 2603 2366 
Q 2794 2344 3030 2270 
Q 3266 2197 3450 2066 
z
M 2697 2734 
Q 2813 2869 2858 3028 
Q 2903 3188 2903 3406 
Q 2903 3772 2703 3980 
Q 2503 4188 2072 4188 
Q 1972 4188 1820 4183 
Q 1669 4178 1566 4175 
L 1566 2472 
L 1963 2472 
Q 2219 2472 2401 2537 
Q 2584 2603 2697 2734 
z
M 3128 1319 
Q 3128 1713 2864 1966 
Q 2600 2219 2109 2219 
Q 1909 2219 1771 2214 
Q 1634 2209 1566 2206 
L 1566 644 
Q 1566 447 1725 347 
Q 1884 247 2169 247 
Q 2634 247 2881 519 
Q 3128 791 3128 1319 
z
" transform="scale(0.015625)"/>
     </defs>
     <use xlink:href="#Georgia-42"/>
    </g>
   </g>
   <g id="text_45">
    <!-- N -->
    <g transform="translate(112.012145 115.754823) scale(0.18 -0.18)">
     <defs>
      <path id="Georgia-4e" d="M 4856 4213 
Q 4769 4209 4587 4162 
Q 4406 4116 4328 4066 
Q 4216 3988 4177 3766 
Q 4138 3544 4138 3203 
L 4138 -44 
L 3866 -44 
L 1178 3584 
L 1178 1297 
Q 1178 913 1226 706 
Q 1275 500 1375 413 
Q 1447 344 1672 284 
Q 1897 225 1969 222 
L 1969 0 
L 150 0 
L 150 222 
Q 234 228 434 283 
Q 634 338 684 381 
Q 794 469 834 648 
Q 875 828 875 1263 
L 875 3447 
Q 875 3591 825 3734 
Q 775 3878 691 3956 
Q 578 4059 386 4132 
Q 194 4206 75 4213 
L 75 4434 
L 1341 4434 
L 3834 1053 
L 3834 3163 
Q 3834 3550 3784 3758 
Q 3734 3966 3641 4034 
Q 3553 4094 3354 4150 
Q 3156 4206 3053 4213 
L 3053 4434 
L 4856 4434 
L 4856 4213 
z
" transform="scale(0.015625)"/>
     </defs>
     <use xlink:href="#Georgia-4e"/>
    </g>
   </g>
   <g id="text_46">
    <!-- M -->
    <g transform="translate(173.291305 113.9406) scale(0.18 -0.18)">
     <defs>
      <path id="Georgia-4d" d="M 5644 0 
L 3684 0 
L 3684 222 
Q 3791 225 3958 244 
Q 4125 263 4188 297 
Q 4284 356 4329 432 
Q 4375 509 4375 625 
L 4375 3850 
L 4328 3850 
L 2816 72 
L 2659 72 
L 1219 3928 
L 1178 3928 
L 1178 1281 
Q 1178 897 1226 697 
Q 1275 497 1375 409 
Q 1444 344 1659 284 
Q 1875 225 1941 222 
L 1941 0 
L 150 0 
L 150 222 
Q 291 234 445 268 
Q 600 303 684 372 
Q 794 459 834 640 
Q 875 822 875 1247 
L 875 3516 
Q 875 3713 828 3838 
Q 781 3963 694 4041 
Q 597 4125 456 4165 
Q 316 4206 178 4213 
L 178 4434 
L 1691 4434 
L 2959 1109 
L 4044 3891 
Q 4103 4044 4145 4211 
Q 4188 4378 4191 4434 
L 5638 4434 
L 5638 4213 
Q 5550 4209 5414 4184 
Q 5278 4159 5216 4138 
Q 5109 4100 5071 4012 
Q 5034 3925 5034 3822 
L 5034 625 
Q 5034 516 5071 441 
Q 5109 366 5216 309 
Q 5272 278 5415 251 
Q 5559 225 5644 222 
L 5644 0 
z
" transform="scale(0.015625)"/>
     </defs>
     <use xlink:href="#Georgia-4d"/>
    </g>
   </g>
   <g id="text_47">
    <!-- ''.'' -->
    <g transform="translate(342.134262 303.629496) scale(0.18 -0.18)">
     <defs>
      <path id="Georgia-27" d="M 1041 4428 
Q 1041 4303 959 3947 
Q 878 3591 778 3022 
L 588 3022 
Q 503 3553 420 3929 
Q 338 4306 338 4428 
Q 338 4572 425 4675 
Q 513 4778 691 4778 
Q 859 4778 950 4675 
Q 1041 4572 1041 4428 
z
" transform="scale(0.015625)"/>
      <path id="Georgia-2e" d="M 1297 359 
Q 1297 184 1170 60 
Q 1044 -63 869 -63 
Q 694 -63 567 60 
Q 441 184 441 359 
Q 441 534 567 661 
Q 694 788 869 788 
Q 1044 788 1170 661 
Q 1297 534 1297 359 
z
" transform="scale(0.015625)"/>
     </defs>
     <use xlink:href="#Georgia-27"/>
     <use xlink:href="#Georgia-27" transform="translate(21.533203 0)"/>
     <use xlink:href="#Georgia-2e" transform="translate(43.066406 0)"/>
     <use xlink:href="#Georgia-27" transform="translate(70.019531 0)"/>
     <use xlink:href="#Georgia-27" transform="translate(91.552734 0)"/>
    </g>
   </g>
   <g id="text_48">
    <!--  -->
    <g transform="translate(437.492251 65.313627) scale(0.18 -0.18)">
     <defs>
      <path id="Georgia-3b1" d="M 3841 59 
Q 3681 3 3506 -31 
Q 3331 -66 3231 -66 
Q 2969 -66 2834 86 
Q 2700 238 2647 628 
Q 2566 494 2448 351 
Q 2331 209 2203 122 
Q 2056 19 1906 -36 
Q 1756 -91 1544 -91 
Q 1284 -91 1045 25 
Q 806 141 622 356 
Q 438 572 331 875 
Q 225 1178 225 1544 
Q 225 1878 337 2178 
Q 450 2478 653 2706 
Q 847 2922 1114 3044 
Q 1381 3166 1669 3166 
Q 2041 3166 2300 2986 
Q 2559 2806 2681 2484 
L 2759 3081 
L 3341 3081 
Q 3319 2859 3245 2418 
Q 3172 1978 3075 1456 
Q 3084 997 3179 689 
Q 3275 381 3425 294 
Q 3472 266 3603 262 
Q 3734 259 3841 259 
L 3841 59 
z
M 2588 1634 
Q 2566 1863 2516 2097 
Q 2466 2331 2366 2513 
Q 2269 2697 2114 2811 
Q 1959 2925 1731 2925 
Q 1363 2925 1120 2547 
Q 878 2169 878 1506 
Q 878 1253 931 1026 
Q 984 800 1081 634 
Q 1184 459 1351 351 
Q 1519 244 1750 244 
Q 2131 244 2343 586 
Q 2556 928 2588 1634 
z
" transform="scale(0.015625)"/>
     </defs>
     <use xlink:href="#Georgia-3b1"/>
    </g>
   </g>
   <g id="text_49">
    <!--  -->
    <g transform="translate(424.164947 300.101214) scale(0.18 -0.18)">
     <defs>
      <path id="Georgia-3b2" d="M 2978 2488 
Q 3175 2309 3276 2057 
Q 3378 1806 3378 1503 
Q 3378 838 2961 381 
Q 2544 -75 1900 -75 
Q 1628 -75 1442 -9 
Q 1256 56 1147 134 
L 1122 134 
L 1122 -1388 
L 538 -1388 
L 538 3138 
Q 538 3606 608 3881 
Q 678 4156 941 4434 
Q 1113 4619 1375 4731 
Q 1638 4844 1966 4844 
Q 2209 4844 2428 4784 
Q 2647 4725 2819 4597 
Q 2991 4472 3087 4283 
Q 3184 4094 3184 3822 
Q 3184 3572 3090 3387 
Q 2997 3203 2863 3091 
Q 2731 2975 2565 2906 
Q 2400 2838 2266 2822 
L 2278 2794 
Q 2422 2784 2620 2707 
Q 2819 2631 2978 2488 
z
M 2725 1491 
Q 2725 1709 2689 1931 
Q 2653 2153 2566 2300 
Q 2472 2453 2311 2540 
Q 2150 2628 1897 2628 
L 1603 2628 
L 1603 2925 
L 1816 2925 
Q 1953 2925 2101 2973 
Q 2250 3022 2356 3122 
Q 2478 3234 2547 3387 
Q 2616 3541 2616 3800 
Q 2616 4188 2428 4397 
Q 2241 4606 1938 4606 
Q 1756 4606 1617 4547 
Q 1478 4488 1359 4328 
Q 1250 4181 1186 3922 
Q 1122 3663 1122 3309 
L 1122 653 
Q 1188 453 1388 303 
Q 1588 153 1847 153 
Q 2247 153 2486 511 
Q 2725 869 2725 1491 
z
" transform="scale(0.015625)"/>
     </defs>
     <use xlink:href="#Georgia-3b2"/>
    </g>
   </g>
   <g id="text_50">
    <!--  -->
    <g transform="translate(407.969363 290.746747) scale(0.18 -0.18)">
     <defs>
      <path id="Georgia-3b3" d="M 2022 -703 
Q 2022 -941 1994 -1080 
Q 1966 -1219 1919 -1284 
Q 1872 -1350 1814 -1369 
Q 1756 -1388 1681 -1388 
Q 1522 -1388 1439 -1286 
Q 1356 -1184 1356 -981 
Q 1356 -763 1395 -500 
Q 1434 -238 1509 47 
Q 1269 766 1041 1292 
Q 813 1819 491 2550 
Q 419 2709 291 2773 
Q 163 2838 -41 2847 
L -41 3050 
L 888 3119 
L 931 3075 
Q 1016 2856 1159 2536 
Q 1303 2216 1456 1841 
Q 1575 1553 1701 1168 
Q 1828 784 1850 572 
Q 1953 844 2100 1131 
Q 2247 1419 2319 1588 
Q 2397 1772 2433 1887 
Q 2469 2003 2469 2100 
Q 2469 2288 2422 2484 
Q 2375 2681 2375 2806 
Q 2375 2944 2478 3055 
Q 2581 3166 2744 3166 
Q 2909 3166 3006 3072 
Q 3103 2978 3103 2800 
Q 3103 2603 3008 2378 
Q 2913 2153 2788 1906 
Q 2600 1534 2348 1078 
Q 2097 622 1928 166 
Q 1959 -113 1990 -338 
Q 2022 -563 2022 -703 
z
" transform="scale(0.015625)"/>
     </defs>
     <use xlink:href="#Georgia-3b3"/>
    </g>
   </g>
   <g id="text_51">
    <!-- UMAP of Symbols -->
    <g transform="translate(151.427234 27.36) scale(0.22 -0.22)">
     <defs>
      <path id="Georgia-20" transform="scale(0.015625)"/>
      <path id="Georgia-6f" d="M 3228 1572 
Q 3228 1247 3125 933 
Q 3022 619 2831 400 
Q 2616 150 2331 28 
Q 2047 -94 1694 -94 
Q 1400 -94 1134 17 
Q 869 128 663 341 
Q 459 550 339 851 
Q 219 1153 219 1528 
Q 219 2250 639 2709 
Q 1059 3169 1741 3169 
Q 2388 3169 2808 2733 
Q 3228 2297 3228 1572 
z
M 2581 1566 
Q 2581 1800 2534 2061 
Q 2488 2322 2394 2503 
Q 2294 2697 2131 2814 
Q 1969 2931 1734 2931 
Q 1494 2931 1323 2812 
Q 1153 2694 1047 2488 
Q 947 2297 906 2053 
Q 866 1809 866 1581 
Q 866 1281 914 1026 
Q 963 772 1069 572 
Q 1175 372 1336 258 
Q 1497 144 1734 144 
Q 2125 144 2353 522 
Q 2581 900 2581 1566 
z
" transform="scale(0.015625)"/>
      <path id="Georgia-66" d="M 2519 4466 
Q 2519 4325 2444 4228 
Q 2369 4131 2216 4131 
Q 2119 4131 2045 4172 
Q 1972 4213 1909 4281 
Q 1847 4350 1794 4437 
Q 1741 4525 1703 4578 
Q 1494 4569 1380 4286 
Q 1266 4003 1266 3384 
L 1266 3069 
L 2059 3069 
L 2059 2769 
L 1266 2769 
L 1266 556 
Q 1266 447 1308 378 
Q 1350 309 1441 275 
Q 1516 247 1641 230 
Q 1766 213 1856 206 
L 1856 0 
L 231 0 
L 231 206 
Q 303 213 379 219 
Q 456 225 513 244 
Q 600 272 642 342 
Q 684 413 684 525 
L 684 2769 
L 75 2769 
L 75 3069 
L 684 3069 
L 684 3266 
Q 684 3969 1048 4405 
Q 1413 4841 1959 4841 
Q 2238 4841 2378 4731 
Q 2519 4622 2519 4466 
z
" transform="scale(0.015625)"/>
      <path id="Georgia-79" d="M -9 -1006 
Q -9 -850 77 -751 
Q 163 -653 291 -653 
Q 391 -653 462 -690 
Q 534 -728 591 -788 
Q 638 -834 691 -915 
Q 744 -997 775 -1050 
Q 931 -966 1148 -609 
Q 1366 -253 1463 16 
Q 1166 756 925 1340 
Q 684 1925 422 2550 
Q 363 2694 222 2773 
Q 81 2853 -59 2875 
L -59 3081 
L 1347 3081 
L 1347 2863 
Q 1253 2859 1122 2823 
Q 991 2788 991 2741 
Q 991 2722 1005 2678 
Q 1019 2634 1038 2588 
Q 1156 2278 1400 1695 
Q 1644 1113 1778 763 
Q 1919 1097 2070 1455 
Q 2222 1813 2409 2300 
Q 2431 2359 2472 2464 
Q 2513 2569 2513 2644 
Q 2513 2725 2370 2795 
Q 2228 2866 2100 2881 
L 2100 3081 
L 3244 3081 
L 3244 2888 
Q 3150 2872 2997 2780 
Q 2844 2688 2769 2519 
Q 2397 1656 2108 947 
Q 1819 238 1669 -97 
Q 1472 -534 1317 -779 
Q 1163 -1025 1016 -1166 
Q 872 -1297 755 -1342 
Q 638 -1388 513 -1388 
Q 269 -1388 130 -1272 
Q -9 -1156 -9 -1006 
z
" transform="scale(0.015625)"/>
      <path id="Georgia-6d" d="M 5503 0 
L 4000 0 
L 4000 206 
Q 4072 213 4145 219 
Q 4219 225 4275 244 
Q 4363 272 4405 342 
Q 4447 413 4447 525 
L 4447 2116 
Q 4447 2441 4298 2617 
Q 4150 2794 3928 2794 
Q 3775 2794 3640 2747 
Q 3506 2700 3394 2616 
Q 3303 2547 3242 2467 
Q 3181 2388 3150 2334 
L 3150 556 
Q 3150 447 3187 376 
Q 3225 306 3316 269 
Q 3388 241 3445 227 
Q 3503 213 3597 206 
L 3597 0 
L 2125 0 
L 2125 206 
Q 2197 213 2264 219 
Q 2331 225 2388 244 
Q 2475 272 2517 342 
Q 2559 413 2559 525 
L 2559 2116 
Q 2559 2441 2411 2617 
Q 2263 2794 2041 2794 
Q 1888 2794 1753 2745 
Q 1619 2697 1506 2613 
Q 1416 2544 1353 2458 
Q 1291 2372 1259 2328 
L 1259 563 
Q 1259 456 1303 384 
Q 1347 313 1434 275 
Q 1500 244 1569 228 
Q 1638 213 1722 206 
L 1722 0 
L 225 0 
L 225 206 
Q 297 213 373 219 
Q 450 225 506 244 
Q 594 272 636 342 
Q 678 413 678 525 
L 678 2441 
Q 678 2541 633 2620 
Q 588 2700 506 2756 
Q 447 2794 359 2817 
Q 272 2841 178 2847 
L 178 3050 
L 1209 3119 
L 1253 3075 
L 1253 2634 
L 1275 2634 
Q 1353 2713 1465 2819 
Q 1578 2925 1675 2991 
Q 1784 3066 1948 3116 
Q 2113 3166 2303 3166 
Q 2603 3166 2818 3005 
Q 3034 2844 3128 2616 
Q 3241 2725 3327 2808 
Q 3413 2891 3553 2984 
Q 3672 3066 3833 3116 
Q 3994 3166 4191 3166 
Q 4581 3166 4809 2909 
Q 5038 2653 5038 2122 
L 5038 556 
Q 5038 447 5075 376 
Q 5113 306 5203 269 
Q 5275 241 5345 227 
Q 5416 213 5503 206 
L 5503 0 
z
" transform="scale(0.015625)"/>
      <path id="Georgia-62" d="M 3353 1544 
Q 3353 850 2915 378 
Q 2478 -94 1900 -94 
Q 1647 -94 1401 -15 
Q 1156 63 941 194 
L 709 -166 
L 516 -122 
Q 531 109 537 434 
Q 544 759 544 1063 
L 544 4113 
Q 544 4219 495 4325 
Q 447 4431 372 4478 
Q 313 4519 173 4539 
Q 34 4559 -50 4566 
L -50 4766 
L 1081 4838 
L 1125 4791 
L 1125 2759 
L 1147 2753 
Q 1341 2959 1570 3062 
Q 1800 3166 2022 3166 
Q 2591 3166 2972 2716 
Q 3353 2266 3353 1544 
z
M 2700 1522 
Q 2700 1753 2650 1993 
Q 2600 2234 2494 2413 
Q 2388 2594 2216 2706 
Q 2044 2819 1803 2819 
Q 1584 2819 1420 2733 
Q 1256 2647 1125 2500 
L 1125 706 
Q 1144 631 1198 531 
Q 1253 431 1347 341 
Q 1441 253 1559 198 
Q 1678 144 1850 144 
Q 2231 144 2465 512 
Q 2700 881 2700 1522 
z
" transform="scale(0.015625)"/>
      <path id="Georgia-6c" d="M 1669 0 
L 166 0 
L 166 206 
Q 238 213 319 220 
Q 400 228 453 244 
Q 541 272 584 342 
Q 628 413 628 525 
L 628 4094 
Q 628 4206 579 4304 
Q 531 4403 453 4459 
Q 397 4497 247 4528 
Q 97 4559 6 4566 
L 6 4766 
L 1166 4838 
L 1209 4791 
L 1209 563 
Q 1209 453 1250 383 
Q 1291 313 1381 275 
Q 1450 244 1517 228 
Q 1584 213 1669 206 
L 1669 0 
z
" transform="scale(0.015625)"/>
      <path id="Georgia-73" d="M 2259 1509 
Q 2388 1397 2456 1250 
Q 2525 1103 2525 891 
Q 2525 463 2204 191 
Q 1884 -81 1375 -81 
Q 1106 -81 879 16 
Q 653 113 556 194 
L 494 -9 
L 259 -9 
L 228 1063 
L 444 1063 
Q 469 941 550 778 
Q 631 616 747 484 
Q 869 347 1039 253 
Q 1209 159 1422 159 
Q 1722 159 1884 295 
Q 2047 431 2047 684 
Q 2047 816 1995 911 
Q 1944 1006 1844 1078 
Q 1741 1150 1591 1208 
Q 1441 1266 1256 1322 
Q 1109 1366 929 1442 
Q 750 1519 622 1622 
Q 484 1731 396 1890 
Q 309 2050 309 2266 
Q 309 2644 590 2906 
Q 872 3169 1344 3169 
Q 1525 3169 1714 3122 
Q 1903 3075 2022 3009 
L 2094 3172 
L 2319 3172 
L 2366 2181 
L 2150 2181 
Q 2084 2513 1867 2720 
Q 1650 2928 1338 2928 
Q 1081 2928 934 2800 
Q 788 2672 788 2491 
Q 788 2350 836 2256 
Q 884 2163 981 2097 
Q 1075 2034 1217 1979 
Q 1359 1925 1569 1856 
Q 1775 1791 1958 1703 
Q 2141 1616 2259 1509 
z
" transform="scale(0.015625)"/>
     </defs>
     <use xlink:href="#Georgia-55"/>
     <use xlink:href="#Georgia-4d" transform="translate(75.634766 0)"/>
     <use xlink:href="#Georgia-41" transform="translate(168.359375 0)"/>
     <use xlink:href="#Georgia-50" transform="translate(235.449219 0)"/>
     <use xlink:href="#Georgia-20" transform="translate(296.435547 0)"/>
     <use xlink:href="#Georgia-6f" transform="translate(320.556641 0)"/>
     <use xlink:href="#Georgia-66" transform="translate(374.462891 0)"/>
     <use xlink:href="#Georgia-20" transform="translate(406.982422 0)"/>
     <use xlink:href="#Georgia-53" transform="translate(431.103516 0)"/>
     <use xlink:href="#Georgia-79" transform="translate(487.207031 0)"/>
     <use xlink:href="#Georgia-6d" transform="translate(536.425781 0)"/>
     <use xlink:href="#Georgia-62" transform="translate(624.511719 0)"/>
     <use xlink:href="#Georgia-6f" transform="translate(680.517578 0)"/>
     <use xlink:href="#Georgia-6c" transform="translate(734.423828 0)"/>
     <use xlink:href="#Georgia-73" transform="translate(763.037109 0)"/>
    </g>
   </g>
  </g>
 </g>
 <defs>
  <clipPath id="pd372f8f485">
   <rect x="30.58" y="33.36" width="419.072906" height="284.36"/>
  </clipPath>
 </defs>
</svg>
